<svg width="203" height="186" fill="none" xmlns="http://www.w3.org/2000/svg"><g filter="url(#filter0_d_80_182)"><path d="M25.632 94.558a3.16 3.16 0 010-3.117l36.623-64.586a3.16 3.16 0 012.748-1.601h72.994a3.16 3.16 0 012.748 1.6l36.623 64.587c.549.967.549 2.15 0 3.117l-36.623 64.587a3.16 3.16 0 01-2.748 1.601H65.003a3.16 3.16 0 01-2.748-1.601L25.632 94.558z" stroke="#975DDC" stroke-width="10" shape-rendering="crispEdges"/></g><g filter="url(#filter1_d_80_182)"><path d="M97.814 94.516c-.444.139-.747.55-.747 1.015v10.276c.044 1.404 2.083 1.403 2.126 0v-6.868l5.011 7.256c.321.464.853.663 1.355.506.515-.16.848-.648.848-1.252l-.096-9.948a1.064 1.064 0 00-2.126.02l.068 7.006-5.249-7.6a1.062 1.062 0 00-1.19-.41z" fill="#975DDC"/></g><g filter="url(#filter2_d_80_182)"><path d="M77.642 94.449h-2.99c-.587 0-1.063.476-1.063 1.063v10.295c0 .583.487 1.062 1.068 1.062 0 0 2.75-.012 3.508-.012 3.72-.011 5.223-4.803 2.239-6.942 1.67-2.206.026-5.492-2.762-5.466zm0 2.125c1.731.066 1.73 2.547 0 2.613l-1.927.002v-2.615h1.927zm.523 8.158c-.448 0-1.589.004-2.45.007v-3.421l2.45-.003c2.263.086 2.262 3.331 0 3.417z" fill="#975DDC"/></g><g filter="url(#filter3_d_80_182)"><path d="M124.242 104.744c-1.085 0-2.132-.44-2.8-1.177a1.063 1.063 0 10-1.575 1.427c2.323 2.665 7.641 2.628 8.487-1.232.24-1.346-.382-3.109-2.85-4.019a54.891 54.891 0 01-2.841-1.148.934.934 0 01-.359-.897c.033-.224.192-.771.977-1.007 1.572-.474 3.005.668 3.04.696a1.062 1.062 0 001.363-1.63c-.094-.08-2.318-1.914-5.017-1.101-1.336.402-2.281 1.452-2.466 2.74a3.049 3.049 0 001.36 3.02c.047.03.096.057.147.08.059.027 1.47.655 3.06 1.241 1.066.393 1.61.995 1.493 1.652-.119.666-.906 1.355-2.019 1.355z" fill="#975DDC"/></g><g filter="url(#filter4_d_80_182)"><path d="M109.691 94.449c-.587 0-1.063.476-1.063 1.063v7.084c0 1.492.689 2.658 2.106 3.563 1.374.878 3.197.938 4.648.207 2.087-1.05 2.525-2.634 2.525-3.778v-7.076c-.048-1.405-2.076-1.409-2.125 0v7.076c0 .514-.141 1.268-1.356 1.88-.787.397-1.801.378-2.548-.1-.799-.51-1.125-1.024-1.125-1.773v-7.084c0-.586-.476-1.062-1.062-1.062z" fill="#975DDC"/></g><g filter="url(#filter5_d_80_182)"><path d="M82.942 100.659a6.217 6.217 0 006.21 6.21c8.227-.312 8.225-12.109 0-12.42a6.217 6.217 0 00-6.21 6.21zm10.295 0a4.09 4.09 0 01-4.085 4.085c-5.411-.205-5.41-7.965 0-8.17a4.09 4.09 0 014.085 4.085z" fill="#975DDC"/></g><g filter="url(#filter6_d_80_182)"><path d="M70.242 91.402h61.508a1.25 1.25 0 000-2.5h-4.422a27.063 27.063 0 00-3.797-8.12l-.006-3.947 2.564-3.517c.494-.677.17-1.669-.625-1.926l-4.143-1.338-2.553-3.526c-.49-.678-1.534-.678-2.025 0l-2.553 3.526-2.85.92.103-.14c.493-.677.169-1.67-.626-1.926l-5.45-1.761-3.358-4.639c-.491-.677-1.535-.678-2.026 0l-3.358 4.639-5.45 1.76c-.795.258-1.119 1.25-.626 1.927l.103.14-2.85-.92-2.553-3.526c-.49-.678-1.535-.678-2.025 0l-2.553 3.525-4.142 1.339c-.796.257-1.12 1.249-.626 1.926l2.564 3.517-.006 3.947a27.096 27.096 0 00-3.797 8.12h-4.422c-1.656.061-1.656 2.44 0 2.5zm45.106-19.095a1.26 1.26 0 00.628-.456l1.78-2.458 1.78 2.458c.155.215.375.374.628.456l2.888.933-1.788 2.452a1.242 1.242 0 00-.24.739l.005 3.035-2.885-.943a1.261 1.261 0 00-.776 0l-2.885.943.005-3.035c0-.266-.084-.524-.24-.739l-1.788-2.452 2.888-.933zM97.782 69.4a1.25 1.25 0 00.629-.456l2.585-3.571 2.586 3.571c.155.215.375.375.628.456l4.195 1.356-2.597 3.562a1.26 1.26 0 00-.24.739l.007 4.409-4.19-1.37a1.26 1.26 0 00-.777 0l-4.19 1.37.006-4.409c0-.265-.083-.524-.24-.739l-2.597-3.562 4.195-1.356zm-15.954 2.907a1.25 1.25 0 00.629-.456l1.78-2.458 1.78 2.458c.155.215.375.374.627.456l2.888.933-1.788 2.452a1.25 1.25 0 00-.24.739l.005 3.035-2.884-.943a1.262 1.262 0 00-.777 0l-2.885.943.006-3.035c0-.266-.084-.524-.24-.739L78.94 73.24l2.887-.933zm-1.348 9.947l3.757-1.227 4.137 1.352c.794.26 1.64-.354 1.639-1.19l-.008-4.353 2.46-3.374 1.458 2-.01 5.727c0 .835.843 1.45 1.64 1.19l5.443-1.778 5.443 1.778c.796.261 1.641-.355 1.639-1.19l-.009-5.727 1.458-2 2.46 3.373-.007 4.354c-.002.839.844 1.448 1.638 1.19l4.138-1.352 3.755 1.227a24.635 24.635 0 013.214 6.648H77.267a24.619 24.619 0 013.213-6.648z" fill="#975DDC"/></g><g filter="url(#filter7_d_80_182)"><path d="M131.75 110.207H70.242c-1.657.062-1.656 2.44 0 2.5h8.924a27.274 27.274 0 0016.038 10.266 1.251 1.251 0 00.527-2.445 24.746 24.746 0 01-13.338-7.821H119.6a24.742 24.742 0 01-13.461 7.846 1.25 1.25 0 10.515 2.447 27.255 27.255 0 0016.172-10.293h8.924c1.657-.061 1.655-2.439 0-2.5z" fill="#975DDC"/></g><g filter="url(#filter8_d_80_182)"><path d="M102.15 121.86c-.442-1.06-2.014-.984-2.35.116-.335 1.098.937 2.035 1.89 1.401a1.26 1.26 0 00.46-1.517z" fill="#975DDC"/></g><defs><filter id="filter0_d_80_182" x=".405" y=".438" width="202.191" height="185.124" filterUnits="userSpaceOnUse" color-interpolation-filters="sRGB"><feFlood flood-opacity="0" result="BackgroundImageFix"/><feColorMatrix in="SourceAlpha" values="0 0 0 0 0 0 0 0 0 0 0 0 0 0 0 0 0 0 127 0" result="hardAlpha"/><feOffset/><feGaussianBlur stdDeviation="9.908"/><feComposite in2="hardAlpha" operator="out"/><feColorMatrix values="0 0 0 0 0.592157 0 0 0 0 0.364706 0 0 0 0 0.862745 0 0 0 1 0"/><feBlend in2="BackgroundImageFix" result="effect1_dropShadow_80_182"/><feBlend in="SourceGraphic" in2="effect1_dropShadow_80_182" result="shape"/></filter><filter id="filter1_d_80_182" x="83.067" y="80.449" width="37.339" height="40.411" filterUnits="userSpaceOnUse" color-interpolation-filters="sRGB"><feFlood flood-opacity="0" result="BackgroundImageFix"/><feColorMatrix in="SourceAlpha" values="0 0 0 0 0 0 0 0 0 0 0 0 0 0 0 0 0 0 127 0" result="hardAlpha"/><feOffset/><feGaussianBlur stdDeviation="7"/><feComposite in2="hardAlpha" operator="out"/><feColorMatrix values="0 0 0 0 0.592157 0 0 0 0 0.364706 0 0 0 0 0.862745 0 0 0 1 0"/><feBlend in2="BackgroundImageFix" result="effect1_dropShadow_80_182"/><feBlend in="SourceGraphic" in2="effect1_dropShadow_80_182" result="shape"/></filter><filter id="filter2_d_80_182" x="59.589" y="80.449" width="36.399" height="40.42" filterUnits="userSpaceOnUse" color-interpolation-filters="sRGB"><feFlood flood-opacity="0" result="BackgroundImageFix"/><feColorMatrix in="SourceAlpha" values="0 0 0 0 0 0 0 0 0 0 0 0 0 0 0 0 0 0 127 0" result="hardAlpha"/><feOffset/><feGaussianBlur stdDeviation="7"/><feComposite in2="hardAlpha" operator="out"/><feColorMatrix values="0 0 0 0 0.592157 0 0 0 0 0.364706 0 0 0 0 0.862745 0 0 0 1 0"/><feBlend in2="BackgroundImageFix" result="effect1_dropShadow_80_182"/><feBlend in="SourceGraphic" in2="effect1_dropShadow_80_182" result="shape"/></filter><filter id="filter3_d_80_182" x="105.592" y="80.448" width="36.809" height="40.4" filterUnits="userSpaceOnUse" color-interpolation-filters="sRGB"><feFlood flood-opacity="0" result="BackgroundImageFix"/><feColorMatrix in="SourceAlpha" values="0 0 0 0 0 0 0 0 0 0 0 0 0 0 0 0 0 0 127 0" result="hardAlpha"/><feOffset/><feGaussianBlur stdDeviation="7"/><feComposite in2="hardAlpha" operator="out"/><feColorMatrix values="0 0 0 0 0.592157 0 0 0 0 0.364706 0 0 0 0 0.862745 0 0 0 1 0"/><feBlend in2="BackgroundImageFix" result="effect1_dropShadow_80_182"/><feBlend in="SourceGraphic" in2="effect1_dropShadow_80_182" result="shape"/></filter><filter id="filter4_d_80_182" x="94.628" y="80.449" width="37.279" height="40.421" filterUnits="userSpaceOnUse" color-interpolation-filters="sRGB"><feFlood flood-opacity="0" result="BackgroundImageFix"/><feColorMatrix in="SourceAlpha" values="0 0 0 0 0 0 0 0 0 0 0 0 0 0 0 0 0 0 127 0" result="hardAlpha"/><feOffset/><feGaussianBlur stdDeviation="7"/><feComposite in2="hardAlpha" operator="out"/><feColorMatrix values="0 0 0 0 0.592157 0 0 0 0 0.364706 0 0 0 0 0.862745 0 0 0 1 0"/><feBlend in2="BackgroundImageFix" result="effect1_dropShadow_80_182"/><feBlend in="SourceGraphic" in2="effect1_dropShadow_80_182" result="shape"/></filter><filter id="filter5_d_80_182" x="68.942" y="80.449" width="40.38" height="40.42" filterUnits="userSpaceOnUse" color-interpolation-filters="sRGB"><feFlood flood-opacity="0" result="BackgroundImageFix"/><feColorMatrix in="SourceAlpha" values="0 0 0 0 0 0 0 0 0 0 0 0 0 0 0 0 0 0 127 0" result="hardAlpha"/><feOffset/><feGaussianBlur stdDeviation="7"/><feComposite in2="hardAlpha" operator="out"/><feColorMatrix values="0 0 0 0 0.592157 0 0 0 0 0.364706 0 0 0 0 0.862745 0 0 0 1 0"/><feBlend in2="BackgroundImageFix" result="effect1_dropShadow_80_182"/><feBlend in="SourceGraphic" in2="effect1_dropShadow_80_182" result="shape"/></filter><filter id="filter6_d_80_182" x="55" y="48" width="92" height="57.402" filterUnits="userSpaceOnUse" color-interpolation-filters="sRGB"><feFlood flood-opacity="0" result="BackgroundImageFix"/><feColorMatrix in="SourceAlpha" values="0 0 0 0 0 0 0 0 0 0 0 0 0 0 0 0 0 0 127 0" result="hardAlpha"/><feOffset/><feGaussianBlur stdDeviation="7"/><feComposite in2="hardAlpha" operator="out"/><feColorMatrix values="0 0 0 0 0.592157 0 0 0 0 0.364706 0 0 0 0 0.862745 0 0 0 1 0"/><feBlend in2="BackgroundImageFix" result="effect1_dropShadow_80_182"/><feBlend in="SourceGraphic" in2="effect1_dropShadow_80_182" result="shape"/></filter><filter id="filter7_d_80_182" x="55" y="96.207" width="91.992" height="40.82" filterUnits="userSpaceOnUse" color-interpolation-filters="sRGB"><feFlood flood-opacity="0" result="BackgroundImageFix"/><feColorMatrix in="SourceAlpha" values="0 0 0 0 0 0 0 0 0 0 0 0 0 0 0 0 0 0 127 0" result="hardAlpha"/><feOffset/><feGaussianBlur stdDeviation="7"/><feComposite in2="hardAlpha" operator="out"/><feColorMatrix values="0 0 0 0 0.592157 0 0 0 0 0.364706 0 0 0 0 0.862745 0 0 0 1 0"/><feBlend in2="BackgroundImageFix" result="effect1_dropShadow_80_182"/><feBlend in="SourceGraphic" in2="effect1_dropShadow_80_182" result="shape"/></filter><filter id="filter8_d_80_182" x="85.746" y="107.106" width="30.497" height="30.476" filterUnits="userSpaceOnUse" color-interpolation-filters="sRGB"><feFlood flood-opacity="0" result="BackgroundImageFix"/><feColorMatrix in="SourceAlpha" values="0 0 0 0 0 0 0 0 0 0 0 0 0 0 0 0 0 0 127 0" result="hardAlpha"/><feOffset/><feGaussianBlur stdDeviation="7"/><feComposite in2="hardAlpha" operator="out"/><feColorMatrix values="0 0 0 0 0.592157 0 0 0 0 0.364706 0 0 0 0 0.862745 0 0 0 1 0"/><feBlend in2="BackgroundImageFix" result="effect1_dropShadow_80_182"/><feBlend in="SourceGraphic" in2="effect1_dropShadow_80_182" result="shape"/></filter></defs></svg>