<svg width="22" height="24" fill="none" xmlns="http://www.w3.org/2000/svg"><path d="M11.254 13.502l-.007-.01.002-.008.005.018z" fill="#190664"/><path d="M20.96 17.464l-9.711-3.98 9.681-4.053a10.462 10.462 0 01.03 8.033z" fill="#0848BD"/><path d="M11.446 23.718l-.192.264a10.465 10.465 0 01-3.986-.786l3.98-9.712.006.013 1.22 5.01a6.322 6.322 0 01-1.028 5.21z" fill="#3C72DA"/><path d="M15.302 23.165a10.507 10.507 0 01-4.048.817V13.497l4.048 9.668z" fill="#3C72DA"/><path d="M11.248 13.484l-9.681 4.053a10.463 10.463 0 01-.03-8.033l9.711 3.98zm0-.001l-9.711-3.98a10.463 10.463 0 015.659-5.701l4.052 9.681z" fill="#84A8EA"/><path d="M20.93 9.43l-9.681 4.054 3.98-9.712A10.462 10.462 0 0120.93 9.43z" fill="#fff"/><path d="M11.248 13.485l-3.98 9.71a10.462 10.462 0 01-5.701-5.658l9.68-4.052z" fill="#3C72DA"/><path d="M12.157 9.12l-.903 4.35-.005.013-4.053-9.68a10.498 10.498 0 014.058-.818l.075.144a9.013 9.013 0 01.828 5.992z" fill="#fff"/><path d="M15.229 3.772l-3.975 9.698V2.985c1.325 0 2.673.253 3.975.787z" fill="#fff"/><path d="M20.96 17.464a10.462 10.462 0 01-5.658 5.701l-4.053-9.68 9.711 3.979z" fill="#0848BD"/><path d="M11.254 7.278l-1.064-5.3A1.068 1.068 0 0111.249.766h.005l.083.232c.467 1.301-.083 6.28-.083 6.28z" fill="#200F8A"/><path d="M12.307 1.976l-1.053 5.3V.764c.644.004 1.14.573 1.053 1.212z" fill="#190664"/><path d="M11.388 1.798a.836.836 0 01-.134.454h-.005a.455.455 0 010-.909h.005c.09.138.134.297.134.455z" fill="#fff"/><path d="M11.254 15.411h-.005a1.928 1.928 0 010-3.854h.005a3.387 3.387 0 010 3.854z" fill="#190664"/><path d="M13.176 13.484c0 1.062-.86 1.925-1.922 1.927v-3.854a1.928 1.928 0 011.922 1.927z" fill="#190664"/><path d="M11.318 14.217l-.064.11h-.005a.843.843 0 110-1.686h.005l.064.11a1.455 1.455 0 010 1.466z" fill="#fff"/><path d="M12.091 13.484c0 .463-.374.84-.837.843V12.64c.463.003.837.38.837.843z" fill="#fff"/><path d="M11.703 1.798a.455.455 0 01-.449.454v-.909c.248.003.45.206.45.455z" fill="#E0F0F7"/></svg>