<svg width="203" height="186" fill="none" xmlns="http://www.w3.org/2000/svg"><g filter="url(#filter0_d_80_181)"><path d="M25.632 94.558a3.16 3.16 0 010-3.117l36.623-64.586a3.16 3.16 0 012.748-1.601h72.994a3.16 3.16 0 012.748 1.6l36.623 64.587c.549.967.549 2.15 0 3.117l-36.623 64.587a3.16 3.16 0 01-2.748 1.601H65.003a3.16 3.16 0 01-2.748-1.601L25.632 94.558z" stroke="#975DDC" stroke-width="10" shape-rendering="crispEdges"/></g><g filter="url(#filter1_d_80_181)"><path d="M77 85.22v29.304a6.474 6.474 0 004.014 5.989A6.5 6.5 0 0083.5 121h37.019a6.483 6.483 0 004.583-1.897 6.473 6.473 0 001.898-4.579V85.22a6.49 6.49 0 00-1.897-4.586 6.503 6.503 0 00-4.584-1.91h-4.115a11.383 11.383 0 001.5-1.921 9.324 9.324 0 00.231-9.147 7.267 7.267 0 00-6.52-3.65 9.988 9.988 0 00-7.692 3.247A11.692 11.692 0 00102 69.98a11.653 11.653 0 00-1.827-2.728 9.979 9.979 0 00-7.692-3.248 7.312 7.312 0 00-6.539 3.632 9.313 9.313 0 00.231 9.147c.43.692.933 1.336 1.5 1.921H83.5a6.505 6.505 0 00-6.01 4.023A6.492 6.492 0 0077 85.22zm46.154 0v29.304a2.624 2.624 0 01-.772 1.862 2.626 2.626 0 01-.855.57 2.62 2.62 0 01-1.008.201h-16.596l.135-34.59h16.519a2.655 2.655 0 012.577 2.653zm-11.539-17.295a3.447 3.447 0 013.212 1.71 5.353 5.353 0 01-.25 5.304c-.827 1.441-3 3.843-8.231 3.843h-2.423c0-2.325.442-6.456 2.673-8.897a6.293 6.293 0 015.019-2.037v.077zm-22.173 6.937a5.36 5.36 0 01-.25-5.303 3.442 3.442 0 013.193-1.71 6.291 6.291 0 014.923 1.92c2.25 2.499 2.654 6.63 2.769 8.956h-2.404c-5.288 0-7.404-2.422-8.23-3.863zM80.846 85.22a2.65 2.65 0 012.654-2.652h16.577l-.135 34.589H83.5a2.65 2.65 0 01-1.875-.764 2.634 2.634 0 01-.779-1.869V85.22z" fill="#975DDC"/></g><defs><filter id="filter0_d_80_181" x=".405" y=".438" width="202.191" height="185.124" filterUnits="userSpaceOnUse" color-interpolation-filters="sRGB"><feFlood flood-opacity="0" result="BackgroundImageFix"/><feColorMatrix in="SourceAlpha" values="0 0 0 0 0 0 0 0 0 0 0 0 0 0 0 0 0 0 127 0" result="hardAlpha"/><feOffset/><feGaussianBlur stdDeviation="9.908"/><feComposite in2="hardAlpha" operator="out"/><feColorMatrix values="0 0 0 0 0.592157 0 0 0 0 0.364706 0 0 0 0 0.862745 0 0 0 1 0"/><feBlend in2="BackgroundImageFix" result="effect1_dropShadow_80_181"/><feBlend in="SourceGraphic" in2="effect1_dropShadow_80_181" result="shape"/></filter><filter id="filter1_d_80_181" x="63" y="50" width="78" height="85" filterUnits="userSpaceOnUse" color-interpolation-filters="sRGB"><feFlood flood-opacity="0" result="BackgroundImageFix"/><feColorMatrix in="SourceAlpha" values="0 0 0 0 0 0 0 0 0 0 0 0 0 0 0 0 0 0 127 0" result="hardAlpha"/><feOffset/><feGaussianBlur stdDeviation="7"/><feComposite in2="hardAlpha" operator="out"/><feColorMatrix values="0 0 0 0 0.592157 0 0 0 0 0.364706 0 0 0 0 0.862745 0 0 0 1 0"/><feBlend in2="BackgroundImageFix" result="effect1_dropShadow_80_181"/><feBlend in="SourceGraphic" in2="effect1_dropShadow_80_181" result="shape"/></filter></defs></svg>