<svg viewBox="0 0 26 17" xmlns="http://www.w3.org/2000/svg" xmlns:xlink="http://www.w3.org/1999/xlink"><style>:root&gt;svg{display:none}:root&gt;svg:target{display:block}</style><svg fill="none" viewBox="0 0 26 17" id="right_arrow" xmlns="http://www.w3.org/2000/svg"><path d="M19.661.8l.008.012.008.01 5.778 7.082s0 0 0 0a1.1 1.1 0 010 1.38s0 0 0 0l-5.77 7.072a1.164 1.164 0 01-1.541.1 1.095 1.095 0 01-.247-1.478l3.892-4.778.399-.49H1.445a1.16 1.16 0 01-.812-.328A1.103 1.103 0 01.3 8.594c0-.294.12-.578.333-.787.214-.21.506-.33.812-.33h20.743l-.399-.49-3.9-4.787-.009-.01-.008-.009a1.113 1.113 0 01-.308-.843 1.095 1.095 0 01.428-.794 1.156 1.156 0 01.893-.23 1.162 1.162 0 01.776.487z" fill="#fff" stroke="#975DDC" stroke-width=".6"/></svg></svg>