<svg width="203" height="186" fill="none" xmlns="http://www.w3.org/2000/svg"><g filter="url(#filter0_d_80_184)"><path d="M25.632 94.558a3.16 3.16 0 010-3.117l36.623-64.586a3.16 3.16 0 012.748-1.601h72.994a3.16 3.16 0 012.748 1.6l36.623 64.587c.549.967.549 2.15 0 3.117l-36.623 64.587a3.16 3.16 0 01-2.748 1.601H65.003a3.16 3.16 0 01-2.748-1.601L25.632 94.558z" stroke="#975DDC" stroke-width="10" shape-rendering="crispEdges"/></g><g filter="url(#filter1_d_80_184)"><path d="M139 87.052a1.023 1.023 0 00-.516-.886l-5.221-2.986 5.224-3.002a1.021 1.021 0 00-.003-1.773c-8.9-5.088-17.799-10.178-26.698-15.269a1.03 1.03 0 00-1.025.001L63.514 90.301a1.02 1.02 0 00.002 1.772l5.22 2.986-5.223 3.003a1.02 1.02 0 00.003 1.772l5.22 2.986-5.223 3.002a1.021 1.021 0 00.003 1.773l26.698 15.269a1.027 1.027 0 001.025-.001l47.247-27.164a1.02 1.02 0 00-.002-1.772l-5.221-2.986 5.223-3.003a1.02 1.02 0 00.514-.886zm-27.724-21.849c8.212 4.698 16.425 9.395 24.638 14.091l-17.783 10.222c-.566-.32-1.604-.91-2.953-1.68l10.109-5.81a1.021 1.021 0 00.352-1.437c-.217-.338-.536-1.013-.227-1.719a1.022 1.022 0 00-.431-1.294l-10.929-6.256a1.032 1.032 0 00-.871-.07c-1.404.521-3.32.439-4.88-.21a1.034 1.034 0 00-.91.058L96.693 77.25l-1.12-.643L93.5 75.42l17.775-10.217zm12.164 15.523l-10.323 5.932a16208.14 16208.14 0 01-14.366-8.229l9.244-5.316c1.769.615 3.769.693 5.431.209l9.844 5.633a3.76 3.76 0 00.17 1.77zm-39.59.242l2.976 1.702-10.092 5.806a1.022 1.022 0 00-.352 1.436c.217.34.536 1.013.228 1.719a1.021 1.021 0 00.43 1.294l10.927 6.246c.264.151.584.178.87.071 1.403-.522 3.32-.44 4.882.209a1.023 1.023 0 00.908-.059l1.684-.968 9.01-5.18 3.17 1.813-17.767 10.218a67669.4 67669.4 0 01-24.64-14.091L83.85 80.968zm-5.269 8.807l10.304-5.927 13.039 7.455 1.337.764c-2.66 1.528-5.319 3.057-7.977 4.586l-1.26.725c-1.77-.616-3.769-.691-5.432-.208l-9.84-5.625a3.766 3.766 0 00-.17-1.77zm-7.785 6.462c6.472 3.702 12.945 7.405 19.418 11.105a1.027 1.027 0 001.025-.001l18.286-10.517.013 5.396-18.814 10.816-24.639-14.091 4.71-2.708zm19.928 24.56l-24.639-14.091 4.711-2.708 19.418 11.105a1.027 1.027 0 001.025-.001l18.305-10.524.013 5.392-18.833 10.827zm20.885-12.006l-.034-13.74a1.02 1.02 0 00-.515-.884S91.585 83.035 85.906 79.786l5.54-3.184s23.959 13.736 25.669 14.665l.029 14.341-5.535 3.183zm24.306-13.975l-16.719 9.613-.011-5.394 12.022-6.911 4.708 2.692zm-16.735 1.86l-.011-5.395 12.037-6.919 4.709 2.693-16.735 9.621zm-31.442-3.512a1.02 1.02 0 01.375-1.397l4.5-2.587a1.028 1.028 0 011.402.374 1.02 1.02 0 01-.375 1.397l-4.5 2.587a1.026 1.026 0 01-1.403-.374zm27.117-15.593a1.02 1.02 0 01-.375 1.397l-3.957 2.275a1.026 1.026 0 01-1.403-.374 1.02 1.02 0 01.376-1.397l3.957-2.275a1.027 1.027 0 011.402.374z" fill="#975DDC"/></g><defs><filter id="filter0_d_80_184" x=".405" y=".438" width="202.191" height="185.124" filterUnits="userSpaceOnUse" color-interpolation-filters="sRGB"><feFlood flood-opacity="0" result="BackgroundImageFix"/><feColorMatrix in="SourceAlpha" values="0 0 0 0 0 0 0 0 0 0 0 0 0 0 0 0 0 0 127 0" result="hardAlpha"/><feOffset/><feGaussianBlur stdDeviation="9.908"/><feComposite in2="hardAlpha" operator="out"/><feColorMatrix values="0 0 0 0 0.592157 0 0 0 0 0.364706 0 0 0 0 0.862745 0 0 0 1 0"/><feBlend in2="BackgroundImageFix" result="effect1_dropShadow_80_184"/><feBlend in="SourceGraphic" in2="effect1_dropShadow_80_184" result="shape"/></filter><filter id="filter1_d_80_184" x="49" y="49" width="104" height="88" filterUnits="userSpaceOnUse" color-interpolation-filters="sRGB"><feFlood flood-opacity="0" result="BackgroundImageFix"/><feColorMatrix in="SourceAlpha" values="0 0 0 0 0 0 0 0 0 0 0 0 0 0 0 0 0 0 127 0" result="hardAlpha"/><feOffset/><feGaussianBlur stdDeviation="7"/><feComposite in2="hardAlpha" operator="out"/><feColorMatrix values="0 0 0 0 0.592157 0 0 0 0 0.364706 0 0 0 0 0.862745 0 0 0 1 0"/><feBlend in2="BackgroundImageFix" result="effect1_dropShadow_80_184"/><feBlend in="SourceGraphic" in2="effect1_dropShadow_80_184" result="shape"/></filter></defs></svg>