<svg width="37" height="48" fill="none" xmlns="http://www.w3.org/2000/svg"><g filter="url(#filter0_d_16_321)"><path d="M25.82 24c0 .466-.177.932-.532 1.287l-11.18 11.18a1.82 1.82 0 11-2.575-2.575L21.425 24l-9.892-9.892a1.82 1.82 0 112.575-2.574l11.18 11.179c.355.355.533.821.533 1.287z" fill="#797979"/><path d="M13.755 36.113h0a1.32 1.32 0 01-1.868 0h0a1.321 1.321 0 010-1.868s0 0 0 0l9.892-9.891.354-.354-.354-.354-9.892-9.891a1.32 1.32 0 010-1.868h0a1.32 1.32 0 011.868 0h0l11.18 11.18s0 0 0 0a1.32 1.32 0 01-.001 1.867l-11.18 11.18z" stroke="#37383D"/></g><defs><filter id="filter0_d_16_321" x="0" y="0" width="36.821" height="48" filterUnits="userSpaceOnUse" color-interpolation-filters="sRGB"><feFlood flood-opacity="0" result="BackgroundImageFix"/><feColorMatrix in="SourceAlpha" values="0 0 0 0 0 0 0 0 0 0 0 0 0 0 0 0 0 0 127 0" result="hardAlpha"/><feOffset/><feGaussianBlur stdDeviation="5.5"/><feComposite in2="hardAlpha" operator="out"/><feColorMatrix values="0 0 0 0 1 0 0 0 0 1 0 0 0 0 1 0 0 0 0.25 0"/><feBlend in2="BackgroundImageFix" result="effect1_dropShadow_16_321"/><feBlend in="SourceGraphic" in2="effect1_dropShadow_16_321" result="shape"/></filter></defs></svg>