<svg width="37" height="48" fill="none" xmlns="http://www.w3.org/2000/svg"><g filter="url(#filter0_d_16_318)"><path d="M11 24c0-.466.178-.932.533-1.287l11.18-11.18a1.82 1.82 0 112.575 2.575L15.395 24l9.892 9.892a1.82 1.82 0 11-2.575 2.574l-11.18-11.179A1.816 1.816 0 0111 24z" fill="#797979"/><path d="M23.066 11.887h0a1.32 1.32 0 011.868 0h0a1.321 1.321 0 010 1.868s0 0 0 0l-9.892 9.891-.354.354.354.354 9.892 9.891a1.32 1.32 0 010 1.868h0a1.32 1.32 0 01-1.868 0h0l-11.18-11.18s0 0 0 0A1.315 1.315 0 0111.5 24c0-.339.129-.676.387-.934l11.18-11.18z" stroke="#37383D"/></g><defs><filter id="filter0_d_16_318" x="0" y="0" width="36.821" height="48" filterUnits="userSpaceOnUse" color-interpolation-filters="sRGB"><feFlood flood-opacity="0" result="BackgroundImageFix"/><feColorMatrix in="SourceAlpha" values="0 0 0 0 0 0 0 0 0 0 0 0 0 0 0 0 0 0 127 0" result="hardAlpha"/><feOffset/><feGaussianBlur stdDeviation="5.5"/><feComposite in2="hardAlpha" operator="out"/><feColorMatrix values="0 0 0 0 1 0 0 0 0 1 0 0 0 0 1 0 0 0 0.25 0"/><feBlend in2="BackgroundImageFix" result="effect1_dropShadow_16_318"/><feBlend in="SourceGraphic" in2="effect1_dropShadow_16_318" result="shape"/></filter></defs></svg>