<svg width="14" height="14" fill="none" xmlns="http://www.w3.org/2000/svg"><g clip-path="url(#clip0_16_607)" fill="#8152B8"><path d="M6.216 7.774H1.67a.657.657 0 00-.655.655v4.916c0 .36.295.655.655.655h4.623c.154 0 .154-.165.154-.165v-5.84s0-.222-.23-.222zm6.114 0H7.788c-.276 0-.235.288-.235.288v5.778s-.002.16.164.16h4.613c.36 0 .655-.295.655-.655V8.429a.657.657 0 00-.655-.655zM6.447 3.906s0-.222-.22-.222H.93a.657.657 0 00-.655.655v2.044c0 .36.295.655.655.655h5.315c.202 0 .202-.174.202-.174V3.906zm6.623-.222H7.756c-.203 0-.203.193-.203.193v2.99s0 .171.246.171h5.27a.657.657 0 00.656-.655V4.34a.657.657 0 00-.655-.655zM4.219 3.2c-.3 0-.573-.025-.813-.071-.61-.12-1.03-.351-1.282-.71-.226-.32-.295-.715-.205-1.174C2.076.442 2.615 0 3.437 0c.174 0 .365.02.568.06.516.1 1.176.397 1.766.791 1 .67 1.05 1.087 1 1.342-.073.375-.423.643-1.07.819a5.897 5.897 0 01-1.482.187zm-.782-2.15c-.318 0-.428.089-.488.396-.049.252.013.34.033.369.086.12.307.221.625.283.171.034.383.051.612.051.504 0 .947-.076 1.242-.16.021-.006.054-.03.019-.052-.385-.314-1.09-.732-1.676-.847a1.952 1.952 0 00-.367-.04zM9.796 3.2a5.897 5.897 0 01-1.481-.188c-.648-.176-.998-.444-1.071-.819-.05-.255 0-.671 1-1.341C8.834.457 9.494.16 10.01.06c.203-.04.394-.06.568-.06.822 0 1.362.442 1.518 1.245.09.46.02.854-.205 1.175-.253.358-.672.59-1.281.709-.24.046-.514.07-.814.07zM8.544 1.93c-.034.02-.018.052 0 .057.294.084.743.162 1.252.162.23 0 .44-.017.612-.05.318-.063.54-.163.625-.284.02-.03.082-.117.033-.368-.06-.308-.17-.397-.488-.397-.106 0-.23.013-.367.04-.587.115-1.282.527-1.667.84z"/></g><defs><clipPath id="clip0_16_607"><path fill="#fff" d="M0 0h14v14H0z"/></clipPath></defs></svg>