<svg width="203" height="186" fill="none" xmlns="http://www.w3.org/2000/svg"><g filter="url(#filter0_d_80_183)"><path d="M25.632 94.558a3.16 3.16 0 010-3.117l36.623-64.586a3.16 3.16 0 012.748-1.601h72.994a3.16 3.16 0 012.748 1.6l36.623 64.587c.549.967.549 2.15 0 3.117l-36.623 64.587a3.16 3.16 0 01-2.748 1.601H65.003a3.16 3.16 0 01-2.748-1.601L25.632 94.558z" stroke="#975DDC" stroke-width="10" shape-rendering="crispEdges"/></g><g filter="url(#filter1_d_80_183)"><path d="M129.882 107.662c6.377-8.949 5.403-21.208-3.309-29.194-3.98-3.649-9.054-5.92-14.535-6.555a1.72 1.72 0 00-.108-.123c-4.768-4.953-11.619-7.794-18.795-7.794C79.48 63.996 68 74.171 68 87.199c0 4.568 1.419 8.947 4.114 12.728L68.35 111.75a1.933 1.933 0 002.719 2.31l11.45-5.822a26.524 26.524 0 007.427 1.979c4.981 5.238 11.869 7.921 18.916 7.921 3.663 0 7.312-.747 10.616-2.166l11.451 5.823a1.934 1.934 0 002.719-2.311l-3.765-11.821zm-46.584-3.316a1.936 1.936 0 00-1.706.023l-8.155 4.147 2.663-8.361a1.934 1.934 0 00-.319-1.778c-2.56-3.278-3.914-7.143-3.914-11.178 0-10.662 9.54-19.336 21.268-19.336 4.723 0 9.269 1.43 12.957 4.007-12.42 1.25-22.367 10.95-22.367 23.063 0 3.768.966 7.395 2.787 10.645a22.314 22.314 0 01-3.214-1.232zm37.105 7.758a1.93 1.93 0 00-1.705-.023c-3.015 1.432-6.416 2.188-9.837 2.188-11.728 0-21.269-8.674-21.269-19.336 0-10.661 9.541-19.335 21.269-19.335 11.727 0 21.268 8.674 21.268 19.335 0 4.035-1.354 7.901-3.915 11.179a1.933 1.933 0 00-.318 1.777l2.663 8.362-8.156-4.147z" fill="#975DDC"/></g><g filter="url(#filter2_d_80_183)"><path d="M100.998 96.867a1.934 1.934 0 100-3.868 1.934 1.934 0 000 3.868z" fill="#975DDC"/></g><g filter="url(#filter3_d_80_183)"><path d="M108.732 96.867a1.934 1.934 0 100-3.868 1.934 1.934 0 000 3.868z" fill="#975DDC"/></g><g filter="url(#filter4_d_80_183)"><path d="M116.466 96.867a1.933 1.933 0 100-3.866 1.933 1.933 0 000 3.866z" fill="#975DDC"/></g><defs><filter id="filter0_d_80_183" x=".405" y=".438" width="202.191" height="185.124" filterUnits="userSpaceOnUse" color-interpolation-filters="sRGB"><feFlood flood-opacity="0" result="BackgroundImageFix"/><feColorMatrix in="SourceAlpha" values="0 0 0 0 0 0 0 0 0 0 0 0 0 0 0 0 0 0 127 0" result="hardAlpha"/><feOffset/><feGaussianBlur stdDeviation="9.908"/><feComposite in2="hardAlpha" operator="out"/><feColorMatrix values="0 0 0 0 0.592157 0 0 0 0 0.364706 0 0 0 0 0.862745 0 0 0 1 0"/><feBlend in2="BackgroundImageFix" result="effect1_dropShadow_80_183"/><feBlend in="SourceGraphic" in2="effect1_dropShadow_80_183" result="shape"/></filter><filter id="filter1_d_80_183" x="54" y="49.996" width="94" height="86.008" filterUnits="userSpaceOnUse" color-interpolation-filters="sRGB"><feFlood flood-opacity="0" result="BackgroundImageFix"/><feColorMatrix in="SourceAlpha" values="0 0 0 0 0 0 0 0 0 0 0 0 0 0 0 0 0 0 127 0" result="hardAlpha"/><feOffset/><feGaussianBlur stdDeviation="7"/><feComposite in2="hardAlpha" operator="out"/><feColorMatrix values="0 0 0 0 0.592157 0 0 0 0 0.364706 0 0 0 0 0.862745 0 0 0 1 0"/><feBlend in2="BackgroundImageFix" result="effect1_dropShadow_80_183"/><feBlend in="SourceGraphic" in2="effect1_dropShadow_80_183" result="shape"/></filter><filter id="filter2_d_80_183" x="85.064" y="79" width="31.867" height="31.867" filterUnits="userSpaceOnUse" color-interpolation-filters="sRGB"><feFlood flood-opacity="0" result="BackgroundImageFix"/><feColorMatrix in="SourceAlpha" values="0 0 0 0 0 0 0 0 0 0 0 0 0 0 0 0 0 0 127 0" result="hardAlpha"/><feOffset/><feGaussianBlur stdDeviation="7"/><feComposite in2="hardAlpha" operator="out"/><feColorMatrix values="0 0 0 0 0.592157 0 0 0 0 0.364706 0 0 0 0 0.862745 0 0 0 1 0"/><feBlend in2="BackgroundImageFix" result="effect1_dropShadow_80_183"/><feBlend in="SourceGraphic" in2="effect1_dropShadow_80_183" result="shape"/></filter><filter id="filter3_d_80_183" x="92.798" y="79" width="31.867" height="31.867" filterUnits="userSpaceOnUse" color-interpolation-filters="sRGB"><feFlood flood-opacity="0" result="BackgroundImageFix"/><feColorMatrix in="SourceAlpha" values="0 0 0 0 0 0 0 0 0 0 0 0 0 0 0 0 0 0 127 0" result="hardAlpha"/><feOffset/><feGaussianBlur stdDeviation="7"/><feComposite in2="hardAlpha" operator="out"/><feColorMatrix values="0 0 0 0 0.592157 0 0 0 0 0.364706 0 0 0 0 0.862745 0 0 0 1 0"/><feBlend in2="BackgroundImageFix" result="effect1_dropShadow_80_183"/><feBlend in="SourceGraphic" in2="effect1_dropShadow_80_183" result="shape"/></filter><filter id="filter4_d_80_183" x="100.532" y="79" width="31.867" height="31.867" filterUnits="userSpaceOnUse" color-interpolation-filters="sRGB"><feFlood flood-opacity="0" result="BackgroundImageFix"/><feColorMatrix in="SourceAlpha" values="0 0 0 0 0 0 0 0 0 0 0 0 0 0 0 0 0 0 127 0" result="hardAlpha"/><feOffset/><feGaussianBlur stdDeviation="7"/><feComposite in2="hardAlpha" operator="out"/><feColorMatrix values="0 0 0 0 0.592157 0 0 0 0 0.364706 0 0 0 0 0.862745 0 0 0 1 0"/><feBlend in2="BackgroundImageFix" result="effect1_dropShadow_80_183"/><feBlend in="SourceGraphic" in2="effect1_dropShadow_80_183" result="shape"/></filter></defs></svg>