<svg width="203" height="186" fill="none" xmlns="http://www.w3.org/2000/svg"><g filter="url(#filter0_d_80_179)"><path d="M25.632 94.558a3.16 3.16 0 010-3.117l36.623-64.586a3.16 3.16 0 012.748-1.601h72.994a3.16 3.16 0 012.748 1.6l36.623 64.587c.549.967.549 2.15 0 3.117l-36.623 64.587a3.16 3.16 0 01-2.748 1.601H65.003a3.16 3.16 0 01-2.748-1.601L25.632 94.558z" stroke="#975DDC" stroke-width="10" shape-rendering="crispEdges"/></g><g filter="url(#filter1_d_80_179)"><path d="M120.092 98.908a26.898 26.898 0 00-10.26-6.435c4.09-2.818 6.777-7.532 6.777-12.864C116.609 71.002 109.607 64 101 64s-15.61 7.002-15.61 15.61c0 5.33 2.688 10.045 6.778 12.863a26.895 26.895 0 00-10.26 6.435C76.808 104.008 74 110.788 74 118h4.219c0-12.562 10.22-22.781 22.781-22.781 12.562 0 22.781 10.219 22.781 22.781H128c0-7.212-2.809-13.992-7.908-19.092zM101 91c-6.28 0-11.39-5.11-11.39-11.39 0-6.281 5.11-11.391 11.39-11.391 6.281 0 11.391 5.11 11.391 11.39C112.391 85.89 107.281 91 101 91z" fill="#975DDC"/></g><defs><filter id="filter0_d_80_179" x=".405" y=".438" width="202.191" height="185.124" filterUnits="userSpaceOnUse" color-interpolation-filters="sRGB"><feFlood flood-opacity="0" result="BackgroundImageFix"/><feColorMatrix in="SourceAlpha" values="0 0 0 0 0 0 0 0 0 0 0 0 0 0 0 0 0 0 127 0" result="hardAlpha"/><feOffset/><feGaussianBlur stdDeviation="9.908"/><feComposite in2="hardAlpha" operator="out"/><feColorMatrix values="0 0 0 0 0.592157 0 0 0 0 0.364706 0 0 0 0 0.862745 0 0 0 1 0"/><feBlend in2="BackgroundImageFix" result="effect1_dropShadow_80_179"/><feBlend in="SourceGraphic" in2="effect1_dropShadow_80_179" result="shape"/></filter><filter id="filter1_d_80_179" x="60" y="50" width="82" height="82" filterUnits="userSpaceOnUse" color-interpolation-filters="sRGB"><feFlood flood-opacity="0" result="BackgroundImageFix"/><feColorMatrix in="SourceAlpha" values="0 0 0 0 0 0 0 0 0 0 0 0 0 0 0 0 0 0 127 0" result="hardAlpha"/><feOffset/><feGaussianBlur stdDeviation="7"/><feComposite in2="hardAlpha" operator="out"/><feColorMatrix values="0 0 0 0 0.592157 0 0 0 0 0.364706 0 0 0 0 0.862745 0 0 0 1 0"/><feBlend in2="BackgroundImageFix" result="effect1_dropShadow_80_179"/><feBlend in="SourceGraphic" in2="effect1_dropShadow_80_179" result="shape"/></filter></defs></svg>